<?xml version="1.0" encoding="UTF-8" standalone="no"?>
<!DOCTYPE svg PUBLIC "-//W3C//DTD SVG 1.1//EN"
 "http://www.w3.org/Graphics/SVG/1.1/DTD/svg11.dtd">
<!-- Generated by graphviz version 2.43.0 (0)
 -->
<!-- Title: %3 Pages: 1 -->
<svg width="772pt" height="233pt"
 viewBox="0.00 0.00 772.00 233.00" xmlns="http://www.w3.org/2000/svg" xmlns:xlink="http://www.w3.org/1999/xlink">
<g id="graph0" class="graph" transform="scale(1 1) rotate(0) translate(4 229)">
<title>%3</title>
<polygon fill="white" stroke="transparent" points="-4,4 -4,-229 768,-229 768,4 -4,4"/>
<!-- 1 -->
<g id="node1" class="node">
<title>1</title>
<polygon fill="#ff0000" stroke="#ff0000" points="409.5,-225 354.5,-225 354.5,-184 409.5,-184 409.5,-225"/>
<text text-anchor="middle" x="382" y="-213" font-family="Arial" font-size="10.00" fill="#ffffff">main</text>
<text text-anchor="middle" x="382" y="-202" font-family="Arial" font-size="10.00" fill="#ffffff">100.00%</text>
<text text-anchor="middle" x="382" y="-191" font-family="Arial" font-size="10.00" fill="#ffffff">(0.00%)</text>
</g>
<!-- 2 -->
<g id="node2" class="node">
<title>2</title>
<polygon fill="#ff0000" stroke="#ff0000" points="764,-144 0,-144 0,-92 764,-92 764,-144"/>
<text text-anchor="middle" x="382" y="-132" font-family="Arial" font-size="10.00" fill="#ffffff">kmpSearch(std::__cxx11::basic_string&lt;char, std::char_traits&lt;char&gt;, std::allocator&lt;char&gt; &gt;, std::__cxx11::basic_string&lt;char, std::char_traits&lt;char&gt;, std::allocator&lt;char&gt; &gt;)</text>
<text text-anchor="middle" x="382" y="-121" font-family="Arial" font-size="10.00" fill="#ffffff">100.00%</text>
<text text-anchor="middle" x="382" y="-110" font-family="Arial" font-size="10.00" fill="#ffffff">(93.67%)</text>
<text text-anchor="middle" x="382" y="-99" font-family="Arial" font-size="10.00" fill="#ffffff">1×</text>
</g>
<!-- 1&#45;&gt;2 -->
<g id="edge1" class="edge">
<title>1&#45;&gt;2</title>
<path fill="none" stroke="#ff0000" stroke-width="4" d="M382,-183.9C382,-175.14 382,-164.55 382,-154.47"/>
<polygon fill="#ff0000" stroke="#ff0000" stroke-width="4" points="385.5,-154.27 382,-144.27 378.5,-154.27 385.5,-154.27"/>
<text text-anchor="middle" x="401.5" y="-167" font-family="Arial" font-size="10.00" fill="#ff0000">100.00%</text>
<text text-anchor="middle" x="401.5" y="-156" font-family="Arial" font-size="10.00" fill="#ff0000">1×</text>
</g>
<!-- 3 -->
<g id="node3" class="node">
<title>3</title>
<polygon fill="#0d2379" stroke="#0d2379" points="413.5,-52 126.5,-52 126.5,0 413.5,0 413.5,-52"/>
<text text-anchor="middle" x="270" y="-40" font-family="Arial" font-size="10.00" fill="#ffffff">std::vector&lt;int, std::allocator&lt;int&gt; &gt;::operator[](unsigned long)</text>
<text text-anchor="middle" x="270" y="-29" font-family="Arial" font-size="10.00" fill="#ffffff">5.06%</text>
<text text-anchor="middle" x="270" y="-18" font-family="Arial" font-size="10.00" fill="#ffffff">(5.06%)</text>
<text text-anchor="middle" x="270" y="-7" font-family="Arial" font-size="10.00" fill="#ffffff">24999315×</text>
</g>
<!-- 2&#45;&gt;3 -->
<g id="edge2" class="edge">
<title>2&#45;&gt;3</title>
<path fill="none" stroke="#0d2379" stroke-width="0.5" d="M350.8,-91.93C336.36,-80.32 319.16,-66.5 304.35,-54.6"/>
<polygon fill="#0d2379" stroke="#0d2379" stroke-width="0.5" points="304.92,-53.49 301.42,-52.25 303.38,-55.4 304.92,-53.49"/>
<text text-anchor="middle" x="364.5" y="-75" font-family="Arial" font-size="10.00" fill="#0d2379">5.06%</text>
<text text-anchor="middle" x="364.5" y="-64" font-family="Arial" font-size="10.00" fill="#0d2379">24999311×</text>
</g>
<!-- 4 -->
<g id="node4" class="node">
<title>4</title>
<polygon fill="#0d1274" stroke="#0d1274" points="567,-52 423,-52 423,0 567,0 567,-52"/>
<text text-anchor="middle" x="495" y="-40" font-family="Arial" font-size="10.00" fill="#ffffff">std::allocator&lt;int&gt;::allocator()</text>
<text text-anchor="middle" x="495" y="-29" font-family="Arial" font-size="10.00" fill="#ffffff">1.27%</text>
<text text-anchor="middle" x="495" y="-18" font-family="Arial" font-size="10.00" fill="#ffffff">(1.27%)</text>
<text text-anchor="middle" x="495" y="-7" font-family="Arial" font-size="10.00" fill="#ffffff">1×</text>
</g>
<!-- 2&#45;&gt;4 -->
<g id="edge3" class="edge">
<title>2&#45;&gt;4</title>
<path fill="none" stroke="#0d1274" stroke-width="0.5" d="M413.48,-91.93C428.05,-80.32 445.4,-66.5 460.35,-54.6"/>
<polygon fill="#0d1274" stroke="#0d1274" stroke-width="0.5" points="461.33,-55.39 463.3,-52.25 459.8,-53.47 461.33,-55.39"/>
<text text-anchor="middle" x="465" y="-75" font-family="Arial" font-size="10.00" fill="#0d1274">1.27%</text>
<text text-anchor="middle" x="465" y="-64" font-family="Arial" font-size="10.00" fill="#0d1274">1×</text>
</g>
</g>
</svg>
